<svg width="14" height="13" viewBox="0 0 14 13" fill="none" xmlns="http://www.w3.org/2000/svg">
<path fill-rule="evenodd" clip-rule="evenodd" d="M3.53657 10.5535C1.59892 8.61582 1.59892 5.47426 3.53657 3.53661C5.47422 1.59896 8.61577 1.59896 10.5534 3.53661C12.3245 5.30773 12.4768 8.0847 11.0101 10.0287L12.9678 11.9864C13.4784 12.4971 12.7124 13.2631 12.2017 12.7524L10.2675 10.8181C8.31807 12.4867 5.38156 12.3985 3.53657 10.5535ZM9.78739 4.30264C8.27281 2.78806 5.81718 2.78806 4.3026 4.30264C2.78802 5.81723 2.78802 8.27285 4.3026 9.78744C5.81718 11.302 8.27281 11.302 9.78739 9.78744C11.302 8.27285 11.302 5.81723 9.78739 4.30264Z" fill="#B3B3B3"/>
</svg>
